<svg xmlns="http://www.w3.org/2000/svg" viewBox="0 0 1920 1080" role="img" aria-label="FAITHSHIELD watercolor style Bible cutscene art">
  <defs>
    <linearGradient id="skyGrad" x1="0" y1="0" x2="0" y2="1">
      <stop offset="0%" stop-color="#d5c8b2"/>
      <stop offset="48%" stop-color="#d9d0bf"/>
      <stop offset="100%" stop-color="#8ca4bd"/>
    </linearGradient>
    <linearGradient id="seaGrad" x1="0" y1="0" x2="0" y2="1">
      <stop offset="0%" stop-color="#5f7f9d"/>
      <stop offset="100%" stop-color="#3f5f80"/>
    </linearGradient>
    <filter id="soft" x="-20%" y="-20%" width="140%" height="140%">
      <feGaussianBlur stdDeviation="2.2"/>
    </filter>
    <filter id="paper" x="-20%" y="-20%" width="140%" height="140%">
      <feTurbulence type="fractalNoise" baseFrequency="0.7" numOctaves="2" stitchTiles="stitch"/>
      <feColorMatrix type="saturate" values="0"/>
      <feComponentTransfer>
        <feFuncA type="table" tableValues="0 0.05"/>
      </feComponentTransfer>
    </filter>
  </defs>

  <rect width="1920" height="1080" fill="url(#skyGrad)"/>
  <path d="M0 365 C 220 300, 480 320, 760 370 C 980 410, 1200 410, 1420 360 C 1620 315, 1770 320, 1920 360 L1920 540 L0 540 Z" fill="#5f748f" opacity="0.62"/>
  <path d="M0 420 C 340 370, 610 385, 940 450 C 1280 515, 1580 500, 1920 442 L1920 1080 L0 1080 Z" fill="url(#seaGrad)"/>

  <g stroke="#7b98b5" stroke-width="5" opacity="0.55" fill="none">
    <path d="M0 525 C 260 486, 540 500, 830 540 C 1110 578, 1440 575, 1920 532"/>
    <path d="M0 585 C 280 548, 590 564, 900 602 C 1210 640, 1520 636, 1920 596"/>
    <path d="M0 648 C 300 612, 640 626, 980 668 C 1290 705, 1600 700, 1920 666"/>
    <path d="M0 712 C 280 680, 590 694, 930 735 C 1260 775, 1560 770, 1920 734"/>
  </g>

  <path d="M806 1065 C 848 952, 893 845, 956 730 C 1025 605, 1110 513, 1208 435 C 1312 352, 1448 286, 1610 248 L1674 318 C 1530 352, 1404 415, 1306 493 C 1210 568, 1126 662, 1064 785 C 1012 886, 968 983, 928 1080 Z" fill="#f0eee5" opacity="0.95"/>
  <path d="M796 1075 C 845 965, 890 858, 953 742 C 1020 620, 1103 530, 1198 452 C 1299 369, 1436 302, 1600 261" stroke="#d4d2c8" stroke-width="5" fill="none" opacity="0.82"/>

  <g fill="#dfe7ef" opacity="0.88">
    <path d="M120 560 Q 180 530 250 550 Q 200 580 145 590 Z"/>
    <path d="M420 646 Q 500 612 570 638 Q 500 674 430 682 Z"/>
    <path d="M710 586 Q 770 556 844 575 Q 782 607 726 614 Z"/>
    <path d="M980 688 Q 1048 652 1124 674 Q 1052 712 990 722 Z"/>
    <path d="M1252 600 Q 1320 562 1390 585 Q 1323 620 1260 628 Z"/>
    <path d="M1508 710 Q 1574 676 1646 700 Q 1578 734 1514 744 Z"/>
  </g>

  <g fill="#4c4c4c" opacity="0.64">
    <circle cx="980" cy="902" r="9"/><rect x="975" y="910" width="10" height="25" rx="3"/>
    <circle cx="1034" cy="844" r="8"/><rect x="1030" y="851" width="8" height="22" rx="3"/>
    <circle cx="1080" cy="785" r="7"/><rect x="1077" y="792" width="7" height="20" rx="3"/>
    <circle cx="1130" cy="722" r="6"/><rect x="1128" y="728" width="6" height="18" rx="3"/>
    <circle cx="1185" cy="662" r="6"/><rect x="1182" y="668" width="6" height="18" rx="3"/>
    <circle cx="1236" cy="608" r="5"/><rect x="1234" y="613" width="5" height="16" rx="3"/>
    <circle cx="1290" cy="558" r="5"/><rect x="1288" y="563" width="5" height="14" rx="3"/>
    <circle cx="1348" cy="510" r="5"/><rect x="1346" y="515" width="5" height="14" rx="3"/>
    <circle cx="1408" cy="468" r="4"/><rect x="1406" y="472" width="4" height="12" rx="2"/>
  </g>

  <g transform="translate(768 894)" fill="#3d3b38">
    <ellipse cx="0" cy="82" rx="54" ry="16" opacity="0.28"/>
    <circle cx="0" cy="0" r="14"/>
    <path d="M-20 16 L20 16 L30 74 L-30 74 Z"/>
    <path d="M30 26 L72 8 L76 18 L34 38 Z"/>
    <path d="M-30 28 L-72 12 L-76 24 L-34 42 Z"/>
    <rect x="72" y="-12" width="5" height="84" rx="2"/>
  </g>

  <g opacity="0.33" filter="url(#soft)" fill="#344b62">
    <ellipse cx="220" cy="250" rx="210" ry="62"/>
    <ellipse cx="520" cy="232" rx="260" ry="72"/>
    <ellipse cx="860" cy="250" rx="330" ry="78"/>
    <ellipse cx="1320" cy="246" rx="280" ry="74"/>
    <ellipse cx="1680" cy="258" rx="220" ry="62"/>
  </g>

  <rect width="1920" height="1080" fill="#fff" opacity="0.04" filter="url(#paper)"/>
</svg>
